<svg width="36" height="36" viewBox="0 0 36 36" fill="none" xmlns="http://www.w3.org/2000/svg">
<path d="M24.126 2.99985L11.874 2.99985C6.5655 2.99985 3 6.41385 3 11.4973L3 24.5023C3 29.5858 6.5655 32.9998 11.874 32.9998H24.126C29.433 32.9998 33 29.5843 33 24.5008L33 11.4973C33 6.41385 29.433 2.99985 24.126 2.99985Z" fill="#5E6272"/>
<path d="M16.7166 11.5809L11.0691 17.2029C10.6446 17.6259 10.6446 18.3744 11.0691 18.7989L16.7166 24.4209C17.1576 24.8589 17.8701 24.8574 18.3081 24.4164C18.7461 23.9754 18.7461 23.2644 18.3051 22.8249L14.5896 19.1244H24.1221C24.7446 19.1244 25.2471 18.6204 25.2471 17.9994C25.2471 17.3784 24.7446 16.8744 24.1221 16.8744H14.5896L18.3051 13.1754C18.5256 12.9549 18.6351 12.6669 18.6351 12.3774C18.6351 12.0909 18.5256 11.8029 18.3081 11.5839C17.8701 11.1444 17.1576 11.1429 16.7166 11.5809Z" fill="white"/>
</svg>
