<svg width="87" height="87" viewBox="0 0 87 87" fill="none" xmlns="http://www.w3.org/2000/svg">
<path d="M46.8267 53.9615L46.8248 46.0516L54.7325 46.0513C56.2513 46.0535 57.4855 44.8193 57.4833 43.3004C57.4879 41.775 56.2559 40.5475 54.7349 40.5475L46.825 40.5456L46.8276 32.6313C46.8276 31.1103 45.5913 29.8828 44.0747 29.8784C42.5558 29.8807 41.3216 31.1149 41.3216 32.6315L41.3213 40.5481L33.4247 40.5461C31.9037 40.5462 30.6695 41.7804 30.6739 43.297C30.6716 44.0598 30.9784 44.7447 31.4765 45.2428C31.9769 45.7431 32.6618 46.0499 33.4223 46.0499L41.321 46.0496L41.323 53.9639C41.3229 54.7244 41.6298 55.4093 42.1279 55.9074C42.626 56.4055 43.3153 56.7124 44.0736 56.7146C45.5947 56.7145 46.8267 55.4825 46.8267 53.9615Z" fill="white"/>
<rect x="1" y="1" width="85" height="85" rx="29" stroke="white" stroke-width="2" stroke-dasharray="4 4"/>
</svg>
