<svg width="41" height="41" viewBox="0 0 41 41" fill="none" xmlns="http://www.w3.org/2000/svg">
<path opacity="0.4" d="M37.5834 20.5C37.5834 25.6479 35.3065 30.2639 31.7048 33.3959C28.7053 36.0042 24.7871 37.5834 20.5001 37.5834C16.2131 37.5834 12.2949 36.0042 9.29541 33.3959C5.6937 30.2639 3.41675 25.6479 3.41675 20.5C3.41675 11.0652 11.0652 3.41669 20.5001 3.41669C29.9349 3.41669 37.5834 11.0652 37.5834 20.5Z" fill="#6C5DD3"/>
<path d="M31.7048 33.3959C30.0076 28.8568 25.6313 25.625 20.5001 25.625C15.3689 25.625 10.9925 28.8568 9.29541 33.3959C12.2949 36.0042 16.2131 37.5834 20.5001 37.5834C24.7871 37.5834 28.7053 36.0042 31.7048 33.3959Z" fill="#6C5DD3"/>
<circle cx="5.125" cy="5.125" r="5.125" transform="matrix(1 0 0 -1 15.375 22.2083)" fill="#6C5DD3"/>
</svg>
