<svg width="30" height="30" viewBox="0 0 30 30" fill="none" xmlns="http://www.w3.org/2000/svg">
<path fill-rule="evenodd" clip-rule="evenodd" d="M3.75049 21.0875V11.5713H26.2505V21.1638C26.2505 25.0875 23.7807 27.5 19.829 27.5H10.1597C6.245 27.5 3.75049 25.0375 3.75049 21.0875ZM9.94972 18.0125C9.38166 18.0388 8.9124 17.5875 8.8877 17.0138C8.8877 16.4388 9.33227 15.9638 9.90032 15.9375C10.456 15.9375 10.9129 16.3763 10.9253 16.9375C10.95 17.5138 10.5054 17.9888 9.94972 18.0125ZM15.0252 18.0125C14.4571 18.0388 13.9879 17.5875 13.9632 17.0138C13.9632 16.4388 14.4077 15.9638 14.9758 15.9375C15.5315 15.9375 15.9884 16.3763 16.0008 16.9375C16.0255 17.5138 15.5809 17.9888 15.0252 18.0125ZM20.0636 22.6125C19.4955 22.6 19.0386 22.125 19.0386 21.55C19.0263 20.975 19.4832 20.5013 20.0513 20.4888H20.0636C20.644 20.4888 21.1133 20.9638 21.1133 21.55C21.1133 22.1375 20.644 22.6125 20.0636 22.6125ZM13.9632 21.55C13.9879 22.125 14.4571 22.5763 15.0252 22.55C15.5809 22.5263 16.0255 22.0513 16.0008 21.4763C15.9884 20.9138 15.5315 20.475 14.9758 20.475C14.4077 20.5013 13.9632 20.975 13.9632 21.55ZM8.87535 21.55C8.90005 22.125 9.36931 22.5763 9.93737 22.55C10.4931 22.5263 10.9376 22.0513 10.9129 21.4763C10.9006 20.9138 10.4437 20.475 9.88797 20.475C9.31992 20.5013 8.87535 20.975 8.87535 21.55ZM19.051 17.0013C19.051 16.4263 19.4955 15.9638 20.0636 15.9513C20.6193 15.9513 21.0639 16.4 21.0886 16.9513C21.1009 17.5263 20.6564 18.0013 20.1007 18.0125C19.5326 18.025 19.0633 17.5875 19.051 17.0138V17.0013Z" fill="#2E2953"/>
<path d="M3.75464 11.5712C3.77069 10.8374 3.83244 9.38118 3.94852 8.91243C4.54127 6.27618 6.55417 4.60118 9.4315 4.36243H20.5704C23.423 4.61368 25.4606 6.29993 26.0533 8.91243C26.1682 9.36868 26.2299 10.8362 26.246 11.5712H3.75464Z" fill="#52479E"/>
<path d="M10.3815 8.2375C10.9249 8.2375 11.3324 7.82625 11.3324 7.275V3.46375C11.3324 2.9125 10.9249 2.5 10.3815 2.5C9.83818 2.5 9.43066 2.9125 9.43066 3.46375V7.275C9.43066 7.82625 9.83818 8.2375 10.3815 8.2375Z" fill="#2E2953"/>
<path d="M19.6191 8.2375C20.1501 8.2375 20.57 7.82625 20.57 7.275V3.46375C20.57 2.9125 20.1501 2.5 19.6191 2.5C19.0757 2.5 18.6682 2.9125 18.6682 3.46375V7.275C18.6682 7.82625 19.0757 8.2375 19.6191 8.2375Z" fill="#2E2953"/>
</svg>
