<svg width="41" height="41" viewBox="0 0 41 41" fill="none" xmlns="http://www.w3.org/2000/svg">
<circle opacity="0.4" cx="20.5001" cy="20.5" r="17.0833" transform="rotate(-90 20.5001 20.5)" fill="#6C5DD3"/>
<path fill-rule="evenodd" clip-rule="evenodd" d="M13.789 24.6737C12.2011 24.3972 10.7739 24.0271 9.56401 23.5871C8.18635 23.0861 7.1482 22.5154 6.47484 21.9365C5.79794 21.3545 5.59759 20.8652 5.59759 20.4996C5.59759 20.134 5.79794 19.6447 6.47484 19.0628C7.1482 18.4839 8.18635 17.9131 9.56401 17.4122C10.7739 16.9722 12.2011 16.6021 13.789 16.3256C13.6614 17.6631 13.594 19.0621 13.594 20.4996C13.594 21.9372 13.6614 23.3362 13.789 24.6737ZM14.0698 26.9299C12.1089 26.6261 10.3296 26.1861 8.81873 25.6366C7.30225 25.0852 5.9983 24.4028 5.0531 23.5902C4.11143 22.7806 3.41675 21.74 3.41675 20.4996C3.41675 19.2593 4.11143 18.2187 5.0531 17.4091C5.9983 16.5965 7.30225 15.9141 8.81872 15.3626C10.3296 14.8132 12.1089 14.3732 14.0698 14.0694C14.3736 12.1085 14.8136 10.3292 15.363 8.81833C15.9145 7.30185 16.5969 5.99791 17.4095 5.0527C18.2191 4.11103 19.2597 3.41635 20.5 3.41635C21.7404 3.41635 22.781 4.11103 23.5906 5.0527C24.4032 5.99791 25.0856 7.30185 25.637 8.81833C26.1864 10.3292 26.6265 12.1085 26.9303 14.0694C28.8912 14.3732 30.6705 14.8132 32.1813 15.3626C33.6978 15.9141 35.0018 16.5965 35.947 17.4091C36.8886 18.2187 37.5833 19.2593 37.5833 20.4996C37.5833 21.74 36.8886 22.7806 35.947 23.5902C35.0018 24.4028 33.6978 25.0852 32.1813 25.6366C30.6705 26.186 28.8912 26.6261 26.9303 26.9299C26.6265 28.8908 26.1864 30.6701 25.637 32.1809C25.0856 33.6974 24.4032 35.0014 23.5906 35.9466C22.781 36.8882 21.7404 37.5829 20.5 37.5829C19.2597 37.5829 18.2191 36.8882 17.4095 35.9466C16.5969 35.0014 15.9145 33.6974 15.363 32.1809C14.8136 30.6701 14.3736 28.8908 14.0698 26.9299ZM24.6741 27.2107C24.3976 28.7986 24.0275 30.2258 23.5875 31.4357C23.0865 32.8133 22.5158 33.8515 21.9369 34.5248C21.3549 35.2017 20.8656 35.4021 20.5 35.4021C20.1344 35.4021 19.6451 35.2017 19.0632 34.5248C18.4843 33.8515 17.9135 32.8133 17.4126 31.4356C16.9726 30.2258 16.6025 28.7986 16.326 27.2107C17.6635 27.3383 19.0625 27.4056 20.5 27.4056C21.9376 27.4056 23.3366 27.3383 24.6741 27.2107ZM24.9869 24.9865C23.5723 25.1409 22.0661 25.2248 20.5 25.2248C18.9339 25.2248 17.4278 25.1409 16.0131 24.9865C15.8587 23.5719 15.7749 22.0657 15.7749 20.4996C15.7749 18.9335 15.8587 17.4274 16.0131 16.0127C17.4278 15.8583 18.9339 15.7745 20.5 15.7745C22.0661 15.7745 23.5723 15.8583 24.9869 16.0127C25.1413 17.4274 25.2252 18.9335 25.2252 20.4996C25.2252 22.0657 25.1413 23.5719 24.9869 24.9865ZM27.2111 24.6737C28.799 24.3972 30.2262 24.0271 31.436 23.5871C32.8137 23.0861 33.8519 22.5154 34.5252 21.9365C35.2021 21.3545 35.4025 20.8652 35.4025 20.4996C35.4025 20.134 35.2021 19.6447 34.5252 19.0628C33.8519 18.4839 32.8137 17.9131 31.436 17.4122C30.2262 16.9722 28.7989 16.6021 27.2111 16.3256C27.3387 17.6631 27.406 19.0621 27.406 20.4996C27.406 21.9372 27.3387 23.3362 27.2111 24.6737ZM24.6741 13.7886C24.3976 12.2007 24.0274 10.7735 23.5875 9.56362C23.0865 8.18596 22.5158 7.1478 21.9369 6.47444C21.3549 5.79755 20.8656 5.5972 20.5 5.5972C20.1344 5.5972 19.6451 5.79755 19.0632 6.47444C18.4843 7.1478 17.9135 8.18596 17.4126 9.56362C16.9726 10.7735 16.6025 12.2007 16.326 13.7886C17.6635 13.661 19.0625 13.5936 20.5 13.5936C21.9376 13.5936 23.3366 13.661 24.6741 13.7886Z" fill="#6C5DD3"/>
</svg>
